<svg width="425" height="1209" viewBox="0 0 425 1209" fill="none" xmlns="http://www.w3.org/2000/svg">
<rect width="425" height="1209" rx="32.69" fill="black"/>
<rect x="42" y="302" width="341" height="341" fill="#F1F1F1" stroke="#BDBDBD" stroke-width="2"/>
<rect x="41" y="657" width="343" height="74" rx="10" fill="#EDDA2F"/>
<path d="M169.664 688.625H172V696.141C172 697.016 171.812 697.753 171.438 698.352C171.068 698.951 170.555 699.401 169.898 699.703C169.247 700.005 168.497 700.156 167.648 700.156C166.799 700.156 166.044 700.005 165.383 699.703C164.727 699.401 164.211 698.951 163.836 698.352C163.466 697.753 163.281 697.016 163.281 696.141V688.625H165.625V696.141C165.625 696.651 165.706 697.068 165.867 697.391C166.029 697.714 166.26 697.951 166.562 698.102C166.87 698.253 167.232 698.328 167.648 698.328C168.076 698.328 168.438 698.253 168.734 698.102C169.036 697.951 169.266 697.714 169.422 697.391C169.583 697.068 169.664 696.651 169.664 696.141V688.625ZM176.039 693.172V703.25H173.789V691.547H175.875L176.039 693.172ZM181.391 695.68V695.844C181.391 696.458 181.318 697.029 181.172 697.555C181.031 698.081 180.823 698.539 180.547 698.93C180.271 699.315 179.927 699.617 179.516 699.836C179.109 700.049 178.641 700.156 178.109 700.156C177.594 700.156 177.146 700.052 176.766 699.844C176.385 699.635 176.065 699.344 175.805 698.969C175.549 698.589 175.344 698.148 175.188 697.648C175.031 697.148 174.911 696.612 174.828 696.039V695.609C174.911 694.995 175.031 694.432 175.188 693.922C175.344 693.406 175.549 692.961 175.805 692.586C176.065 692.206 176.383 691.911 176.758 691.703C177.138 691.495 177.583 691.391 178.094 691.391C178.63 691.391 179.102 691.492 179.508 691.695C179.919 691.898 180.263 692.19 180.539 692.57C180.82 692.951 181.031 693.404 181.172 693.93C181.318 694.456 181.391 695.039 181.391 695.68ZM179.133 695.844V695.68C179.133 695.32 179.102 694.99 179.039 694.688C178.982 694.38 178.888 694.112 178.758 693.883C178.633 693.654 178.466 693.477 178.258 693.352C178.055 693.221 177.807 693.156 177.516 693.156C177.208 693.156 176.945 693.206 176.727 693.305C176.513 693.404 176.339 693.547 176.203 693.734C176.068 693.922 175.966 694.146 175.898 694.406C175.831 694.667 175.789 694.961 175.773 695.289V696.375C175.799 696.76 175.872 697.107 175.992 697.414C176.112 697.716 176.297 697.956 176.547 698.133C176.797 698.31 177.125 698.398 177.531 698.398C177.828 698.398 178.078 698.333 178.281 698.203C178.484 698.068 178.648 697.883 178.773 697.648C178.904 697.414 178.995 697.143 179.047 696.836C179.104 696.529 179.133 696.198 179.133 695.844ZM185.164 688V700H182.906V688H185.164ZM186.664 695.859V695.695C186.664 695.076 186.753 694.505 186.93 693.984C187.107 693.458 187.365 693.003 187.703 692.617C188.042 692.232 188.458 691.932 188.953 691.719C189.448 691.5 190.016 691.391 190.656 691.391C191.297 691.391 191.867 691.5 192.367 691.719C192.867 691.932 193.286 692.232 193.625 692.617C193.969 693.003 194.229 693.458 194.406 693.984C194.583 694.505 194.672 695.076 194.672 695.695V695.859C194.672 696.474 194.583 697.044 194.406 697.57C194.229 698.091 193.969 698.547 193.625 698.938C193.286 699.323 192.87 699.622 192.375 699.836C191.88 700.049 191.312 700.156 190.672 700.156C190.031 700.156 189.461 700.049 188.961 699.836C188.466 699.622 188.047 699.323 187.703 698.938C187.365 698.547 187.107 698.091 186.93 697.57C186.753 697.044 186.664 696.474 186.664 695.859ZM188.914 695.695V695.859C188.914 696.214 188.945 696.544 189.008 696.852C189.07 697.159 189.169 697.43 189.305 697.664C189.445 697.893 189.628 698.073 189.852 698.203C190.076 698.333 190.349 698.398 190.672 698.398C190.984 698.398 191.253 698.333 191.477 698.203C191.701 698.073 191.88 697.893 192.016 697.664C192.151 697.43 192.25 697.159 192.312 696.852C192.38 696.544 192.414 696.214 192.414 695.859V695.695C192.414 695.352 192.38 695.029 192.312 694.727C192.25 694.419 192.148 694.148 192.008 693.914C191.872 693.674 191.693 693.487 191.469 693.352C191.245 693.216 190.974 693.148 190.656 693.148C190.339 693.148 190.068 693.216 189.844 693.352C189.625 693.487 189.445 693.674 189.305 693.914C189.169 694.148 189.07 694.419 189.008 694.727C188.945 695.029 188.914 695.352 188.914 695.695ZM200.617 698.094V694.328C200.617 694.057 200.573 693.826 200.484 693.633C200.396 693.435 200.258 693.281 200.07 693.172C199.888 693.062 199.651 693.008 199.359 693.008C199.109 693.008 198.893 693.052 198.711 693.141C198.529 693.224 198.388 693.346 198.289 693.508C198.19 693.664 198.141 693.849 198.141 694.062H195.891C195.891 693.703 195.974 693.362 196.141 693.039C196.307 692.716 196.549 692.432 196.867 692.188C197.185 691.938 197.562 691.742 198 691.602C198.443 691.461 198.938 691.391 199.484 691.391C200.141 691.391 200.724 691.5 201.234 691.719C201.745 691.938 202.146 692.266 202.438 692.703C202.734 693.141 202.883 693.688 202.883 694.344V697.961C202.883 698.424 202.911 698.805 202.969 699.102C203.026 699.393 203.109 699.648 203.219 699.867V700H200.945C200.836 699.771 200.753 699.484 200.695 699.141C200.643 698.792 200.617 698.443 200.617 698.094ZM200.914 694.852L200.93 696.125H199.672C199.375 696.125 199.117 696.159 198.898 696.227C198.68 696.294 198.5 696.391 198.359 696.516C198.219 696.635 198.115 696.776 198.047 696.938C197.984 697.099 197.953 697.276 197.953 697.469C197.953 697.661 197.997 697.836 198.086 697.992C198.174 698.143 198.302 698.263 198.469 698.352C198.635 698.435 198.831 698.477 199.055 698.477C199.393 698.477 199.688 698.409 199.938 698.273C200.188 698.138 200.38 697.971 200.516 697.773C200.656 697.576 200.729 697.388 200.734 697.211L201.328 698.164C201.245 698.378 201.13 698.599 200.984 698.828C200.844 699.057 200.664 699.273 200.445 699.477C200.227 699.674 199.964 699.839 199.656 699.969C199.349 700.094 198.984 700.156 198.562 700.156C198.026 700.156 197.539 700.049 197.102 699.836C196.669 699.617 196.326 699.318 196.07 698.938C195.82 698.552 195.695 698.115 195.695 697.625C195.695 697.182 195.779 696.789 195.945 696.445C196.112 696.102 196.357 695.812 196.68 695.578C197.008 695.339 197.417 695.159 197.906 695.039C198.396 694.914 198.964 694.852 199.609 694.852H200.914ZM209.609 698.156V688H211.875V700H209.836L209.609 698.156ZM204.266 695.875V695.711C204.266 695.065 204.339 694.479 204.484 693.953C204.63 693.422 204.844 692.966 205.125 692.586C205.406 692.206 205.753 691.911 206.164 691.703C206.576 691.495 207.044 691.391 207.57 691.391C208.065 691.391 208.497 691.495 208.867 691.703C209.242 691.911 209.56 692.208 209.82 692.594C210.086 692.974 210.299 693.424 210.461 693.945C210.622 694.461 210.74 695.026 210.812 695.641V696C210.74 696.589 210.622 697.135 210.461 697.641C210.299 698.146 210.086 698.589 209.82 698.969C209.56 699.344 209.242 699.635 208.867 699.844C208.492 700.052 208.055 700.156 207.555 700.156C207.029 700.156 206.56 700.049 206.148 699.836C205.742 699.622 205.398 699.323 205.117 698.938C204.841 698.552 204.63 698.099 204.484 697.578C204.339 697.057 204.266 696.49 204.266 695.875ZM206.516 695.711V695.875C206.516 696.224 206.542 696.549 206.594 696.852C206.651 697.154 206.742 697.422 206.867 697.656C206.997 697.885 207.164 698.065 207.367 698.195C207.576 698.32 207.828 698.383 208.125 698.383C208.51 698.383 208.828 698.297 209.078 698.125C209.328 697.948 209.518 697.706 209.648 697.398C209.784 697.091 209.862 696.737 209.883 696.336V695.312C209.867 694.984 209.82 694.69 209.742 694.43C209.669 694.164 209.56 693.938 209.414 693.75C209.273 693.562 209.096 693.417 208.883 693.312C208.674 693.208 208.427 693.156 208.141 693.156C207.849 693.156 207.599 693.224 207.391 693.359C207.182 693.49 207.013 693.669 206.883 693.898C206.758 694.128 206.664 694.398 206.602 694.711C206.544 695.018 206.516 695.352 206.516 695.711ZM220.25 688.625V700H217.914V688.625H220.25ZM224.555 693.297V700H222.297V691.547H224.414L224.555 693.297ZM224.242 695.477H223.617C223.617 694.888 223.688 694.346 223.828 693.852C223.974 693.352 224.185 692.919 224.461 692.555C224.742 692.185 225.089 691.898 225.5 691.695C225.911 691.492 226.388 691.391 226.93 691.391C227.305 691.391 227.648 691.448 227.961 691.562C228.273 691.672 228.542 691.846 228.766 692.086C228.995 692.32 229.172 692.628 229.297 693.008C229.422 693.383 229.484 693.833 229.484 694.359V700H227.234V694.609C227.234 694.224 227.182 693.927 227.078 693.719C226.974 693.51 226.826 693.365 226.633 693.281C226.445 693.198 226.219 693.156 225.953 693.156C225.661 693.156 225.406 693.216 225.188 693.336C224.974 693.456 224.797 693.622 224.656 693.836C224.516 694.044 224.411 694.289 224.344 694.57C224.276 694.852 224.242 695.154 224.242 695.477ZM229.273 695.219L228.469 695.32C228.469 694.768 228.536 694.255 228.672 693.781C228.812 693.307 229.018 692.891 229.289 692.531C229.565 692.172 229.906 691.893 230.312 691.695C230.719 691.492 231.188 691.391 231.719 691.391C232.125 691.391 232.495 691.451 232.828 691.57C233.161 691.685 233.445 691.87 233.68 692.125C233.919 692.375 234.102 692.703 234.227 693.109C234.357 693.516 234.422 694.013 234.422 694.602V700H232.164V694.602C232.164 694.211 232.112 693.914 232.008 693.711C231.909 693.503 231.763 693.359 231.57 693.281C231.383 693.198 231.159 693.156 230.898 693.156C230.628 693.156 230.391 693.211 230.188 693.32C229.984 693.424 229.815 693.57 229.68 693.758C229.544 693.945 229.443 694.164 229.375 694.414C229.307 694.659 229.273 694.927 229.273 695.219ZM240.727 698.094V694.328C240.727 694.057 240.682 693.826 240.594 693.633C240.505 693.435 240.367 693.281 240.18 693.172C239.997 693.062 239.76 693.008 239.469 693.008C239.219 693.008 239.003 693.052 238.82 693.141C238.638 693.224 238.497 693.346 238.398 693.508C238.299 693.664 238.25 693.849 238.25 694.062H236C236 693.703 236.083 693.362 236.25 693.039C236.417 692.716 236.659 692.432 236.977 692.188C237.294 691.938 237.672 691.742 238.109 691.602C238.552 691.461 239.047 691.391 239.594 691.391C240.25 691.391 240.833 691.5 241.344 691.719C241.854 691.938 242.255 692.266 242.547 692.703C242.844 693.141 242.992 693.688 242.992 694.344V697.961C242.992 698.424 243.021 698.805 243.078 699.102C243.135 699.393 243.219 699.648 243.328 699.867V700H241.055C240.945 699.771 240.862 699.484 240.805 699.141C240.753 698.792 240.727 698.443 240.727 698.094ZM241.023 694.852L241.039 696.125H239.781C239.484 696.125 239.227 696.159 239.008 696.227C238.789 696.294 238.609 696.391 238.469 696.516C238.328 696.635 238.224 696.776 238.156 696.938C238.094 697.099 238.062 697.276 238.062 697.469C238.062 697.661 238.107 697.836 238.195 697.992C238.284 698.143 238.411 698.263 238.578 698.352C238.745 698.435 238.94 698.477 239.164 698.477C239.503 698.477 239.797 698.409 240.047 698.273C240.297 698.138 240.49 697.971 240.625 697.773C240.766 697.576 240.839 697.388 240.844 697.211L241.438 698.164C241.354 698.378 241.24 698.599 241.094 698.828C240.953 699.057 240.773 699.273 240.555 699.477C240.336 699.674 240.073 699.839 239.766 699.969C239.458 700.094 239.094 700.156 238.672 700.156C238.135 700.156 237.648 700.049 237.211 699.836C236.779 699.617 236.435 699.318 236.18 698.938C235.93 698.552 235.805 698.115 235.805 697.625C235.805 697.182 235.888 696.789 236.055 696.445C236.221 696.102 236.466 695.812 236.789 695.578C237.117 695.339 237.526 695.159 238.016 695.039C238.505 694.914 239.073 694.852 239.719 694.852H241.023ZM250.078 691.547H252.117V699.719C252.117 700.49 251.945 701.143 251.602 701.68C251.263 702.221 250.789 702.63 250.18 702.906C249.57 703.188 248.862 703.328 248.055 703.328C247.701 703.328 247.326 703.281 246.93 703.188C246.539 703.094 246.164 702.948 245.805 702.75C245.451 702.552 245.154 702.302 244.914 702L245.906 700.672C246.167 700.974 246.469 701.208 246.812 701.375C247.156 701.547 247.536 701.633 247.953 701.633C248.359 701.633 248.703 701.557 248.984 701.406C249.266 701.26 249.482 701.044 249.633 700.758C249.784 700.477 249.859 700.135 249.859 699.734V693.5L250.078 691.547ZM244.391 695.875V695.711C244.391 695.065 244.469 694.479 244.625 693.953C244.786 693.422 245.013 692.966 245.305 692.586C245.602 692.206 245.961 691.911 246.383 691.703C246.805 691.495 247.281 691.391 247.812 691.391C248.375 691.391 248.846 691.495 249.227 691.703C249.607 691.911 249.919 692.208 250.164 692.594C250.409 692.974 250.599 693.424 250.734 693.945C250.875 694.461 250.984 695.026 251.062 695.641V696C250.984 696.589 250.867 697.135 250.711 697.641C250.555 698.146 250.349 698.589 250.094 698.969C249.839 699.344 249.521 699.635 249.141 699.844C248.766 700.052 248.318 700.156 247.797 700.156C247.276 700.156 246.805 700.049 246.383 699.836C245.966 699.622 245.609 699.323 245.312 698.938C245.016 698.552 244.786 698.099 244.625 697.578C244.469 697.057 244.391 696.49 244.391 695.875ZM246.641 695.711V695.875C246.641 696.224 246.674 696.549 246.742 696.852C246.81 697.154 246.914 697.422 247.055 697.656C247.201 697.885 247.38 698.065 247.594 698.195C247.812 698.32 248.07 698.383 248.367 698.383C248.779 698.383 249.115 698.297 249.375 698.125C249.635 697.948 249.831 697.706 249.961 697.398C250.091 697.091 250.167 696.737 250.188 696.336V695.312C250.177 694.984 250.133 694.69 250.055 694.43C249.977 694.164 249.867 693.938 249.727 693.75C249.586 693.562 249.404 693.417 249.18 693.312C248.956 693.208 248.69 693.156 248.383 693.156C248.086 693.156 247.828 693.224 247.609 693.359C247.396 693.49 247.216 693.669 247.07 693.898C246.93 694.128 246.823 694.398 246.75 694.711C246.677 695.018 246.641 695.352 246.641 695.711ZM257.758 700.156C257.102 700.156 256.513 700.052 255.992 699.844C255.471 699.63 255.029 699.336 254.664 698.961C254.305 698.586 254.029 698.151 253.836 697.656C253.643 697.156 253.547 696.625 253.547 696.062V695.75C253.547 695.109 253.638 694.523 253.82 693.992C254.003 693.461 254.263 693 254.602 692.609C254.945 692.219 255.362 691.919 255.852 691.711C256.341 691.497 256.893 691.391 257.508 691.391C258.107 691.391 258.638 691.49 259.102 691.688C259.565 691.885 259.953 692.167 260.266 692.531C260.583 692.896 260.823 693.333 260.984 693.844C261.146 694.349 261.227 694.911 261.227 695.531V696.469H254.508V694.969H259.016V694.797C259.016 694.484 258.958 694.206 258.844 693.961C258.734 693.711 258.568 693.513 258.344 693.367C258.12 693.221 257.833 693.148 257.484 693.148C257.188 693.148 256.932 693.214 256.719 693.344C256.505 693.474 256.331 693.656 256.195 693.891C256.065 694.125 255.966 694.401 255.898 694.719C255.836 695.031 255.805 695.375 255.805 695.75V696.062C255.805 696.401 255.852 696.714 255.945 697C256.044 697.286 256.182 697.534 256.359 697.742C256.542 697.951 256.76 698.112 257.016 698.227C257.276 698.341 257.57 698.398 257.898 698.398C258.305 698.398 258.682 698.32 259.031 698.164C259.385 698.003 259.69 697.76 259.945 697.438L261.039 698.625C260.862 698.88 260.62 699.125 260.312 699.359C260.01 699.594 259.646 699.786 259.219 699.938C258.792 700.083 258.305 700.156 257.758 700.156Z" fill="black"/>
<path d="M321.5 119.34H325.004C324.934 120.488 324.617 121.508 324.055 122.398C323.5 123.289 322.723 123.984 321.723 124.484C320.73 124.984 319.535 125.234 318.137 125.234C317.043 125.234 316.062 125.047 315.195 124.672C314.328 124.289 313.586 123.742 312.969 123.031C312.359 122.32 311.895 121.461 311.574 120.453C311.254 119.445 311.094 118.316 311.094 117.066V115.883C311.094 114.633 311.258 113.504 311.586 112.496C311.922 111.48 312.398 110.617 313.016 109.906C313.641 109.195 314.387 108.648 315.254 108.266C316.121 107.883 317.09 107.691 318.16 107.691C319.582 107.691 320.781 107.949 321.758 108.465C322.742 108.98 323.504 109.691 324.043 110.598C324.59 111.504 324.918 112.535 325.027 113.691H321.512C321.473 113.004 321.336 112.422 321.102 111.945C320.867 111.461 320.512 111.098 320.035 110.855C319.566 110.605 318.941 110.48 318.16 110.48C317.574 110.48 317.062 110.59 316.625 110.809C316.188 111.027 315.82 111.359 315.523 111.805C315.227 112.25 315.004 112.812 314.855 113.492C314.715 114.164 314.645 114.953 314.645 115.859V117.066C314.645 117.949 314.711 118.727 314.844 119.398C314.977 120.062 315.18 120.625 315.453 121.086C315.734 121.539 316.094 121.883 316.531 122.117C316.977 122.344 317.512 122.457 318.137 122.457C318.871 122.457 319.477 122.34 319.953 122.105C320.43 121.871 320.793 121.523 321.043 121.062C321.301 120.602 321.453 120.027 321.5 119.34ZM333.945 122.141V116.492C333.945 116.086 333.879 115.738 333.746 115.449C333.613 115.152 333.406 114.922 333.125 114.758C332.852 114.594 332.496 114.512 332.059 114.512C331.684 114.512 331.359 114.578 331.086 114.711C330.812 114.836 330.602 115.02 330.453 115.262C330.305 115.496 330.23 115.773 330.23 116.094H326.855C326.855 115.555 326.98 115.043 327.23 114.559C327.48 114.074 327.844 113.648 328.32 113.281C328.797 112.906 329.363 112.613 330.02 112.402C330.684 112.191 331.426 112.086 332.246 112.086C333.23 112.086 334.105 112.25 334.871 112.578C335.637 112.906 336.238 113.398 336.676 114.055C337.121 114.711 337.344 115.531 337.344 116.516V121.941C337.344 122.637 337.387 123.207 337.473 123.652C337.559 124.09 337.684 124.473 337.848 124.801V125H334.438C334.273 124.656 334.148 124.227 334.062 123.711C333.984 123.188 333.945 122.664 333.945 122.141ZM334.391 117.277L334.414 119.188H332.527C332.082 119.188 331.695 119.238 331.367 119.34C331.039 119.441 330.77 119.586 330.559 119.773C330.348 119.953 330.191 120.164 330.09 120.406C329.996 120.648 329.949 120.914 329.949 121.203C329.949 121.492 330.016 121.754 330.148 121.988C330.281 122.215 330.473 122.395 330.723 122.527C330.973 122.652 331.266 122.715 331.602 122.715C332.109 122.715 332.551 122.613 332.926 122.41C333.301 122.207 333.59 121.957 333.793 121.66C334.004 121.363 334.113 121.082 334.121 120.816L335.012 122.246C334.887 122.566 334.715 122.898 334.496 123.242C334.285 123.586 334.016 123.91 333.688 124.215C333.359 124.512 332.965 124.758 332.504 124.953C332.043 125.141 331.496 125.234 330.863 125.234C330.059 125.234 329.328 125.074 328.672 124.754C328.023 124.426 327.508 123.977 327.125 123.406C326.75 122.828 326.562 122.172 326.562 121.438C326.562 120.773 326.688 120.184 326.938 119.668C327.188 119.152 327.555 118.719 328.039 118.367C328.531 118.008 329.145 117.738 329.879 117.559C330.613 117.371 331.465 117.277 332.434 117.277H334.391ZM343.25 115.027V125H339.875V112.32H343.039L343.25 115.027ZM342.758 118.215H341.844C341.844 117.277 341.965 116.434 342.207 115.684C342.449 114.926 342.789 114.281 343.227 113.75C343.664 113.211 344.184 112.801 344.785 112.52C345.395 112.23 346.074 112.086 346.824 112.086C347.418 112.086 347.961 112.172 348.453 112.344C348.945 112.516 349.367 112.789 349.719 113.164C350.078 113.539 350.352 114.035 350.539 114.652C350.734 115.27 350.832 116.023 350.832 116.914V125H347.434V116.902C347.434 116.34 347.355 115.902 347.199 115.59C347.043 115.277 346.812 115.059 346.508 114.934C346.211 114.801 345.844 114.734 345.406 114.734C344.953 114.734 344.559 114.824 344.223 115.004C343.895 115.184 343.621 115.434 343.402 115.754C343.191 116.066 343.031 116.434 342.922 116.855C342.812 117.277 342.758 117.73 342.758 118.215ZM358.637 122.598C359.051 122.598 359.418 122.52 359.738 122.363C360.059 122.199 360.309 121.973 360.488 121.684C360.676 121.387 360.773 121.039 360.781 120.641H363.957C363.949 121.531 363.711 122.324 363.242 123.02C362.773 123.707 362.145 124.25 361.355 124.648C360.566 125.039 359.684 125.234 358.707 125.234C357.723 125.234 356.863 125.07 356.129 124.742C355.402 124.414 354.797 123.961 354.312 123.383C353.828 122.797 353.465 122.117 353.223 121.344C352.98 120.562 352.859 119.727 352.859 118.836V118.496C352.859 117.598 352.98 116.762 353.223 115.988C353.465 115.207 353.828 114.527 354.312 113.949C354.797 113.363 355.402 112.906 356.129 112.578C356.855 112.25 357.707 112.086 358.684 112.086C359.723 112.086 360.633 112.285 361.414 112.684C362.203 113.082 362.82 113.652 363.266 114.395C363.719 115.129 363.949 116 363.957 117.008H360.781C360.773 116.586 360.684 116.203 360.512 115.859C360.348 115.516 360.105 115.242 359.785 115.039C359.473 114.828 359.086 114.723 358.625 114.723C358.133 114.723 357.73 114.828 357.418 115.039C357.105 115.242 356.863 115.523 356.691 115.883C356.52 116.234 356.398 116.637 356.328 117.09C356.266 117.535 356.234 118.004 356.234 118.496V118.836C356.234 119.328 356.266 119.801 356.328 120.254C356.391 120.707 356.508 121.109 356.68 121.461C356.859 121.812 357.105 122.09 357.418 122.293C357.73 122.496 358.137 122.598 358.637 122.598ZM371.75 125.234C370.766 125.234 369.883 125.078 369.102 124.766C368.32 124.445 367.656 124.004 367.109 123.441C366.57 122.879 366.156 122.227 365.867 121.484C365.578 120.734 365.434 119.938 365.434 119.094V118.625C365.434 117.664 365.57 116.785 365.844 115.988C366.117 115.191 366.508 114.5 367.016 113.914C367.531 113.328 368.156 112.879 368.891 112.566C369.625 112.246 370.453 112.086 371.375 112.086C372.273 112.086 373.07 112.234 373.766 112.531C374.461 112.828 375.043 113.25 375.512 113.797C375.988 114.344 376.348 115 376.59 115.766C376.832 116.523 376.953 117.367 376.953 118.297V119.703H366.875V117.453H373.637V117.195C373.637 116.727 373.551 116.309 373.379 115.941C373.215 115.566 372.965 115.27 372.629 115.051C372.293 114.832 371.863 114.723 371.34 114.723C370.895 114.723 370.512 114.82 370.191 115.016C369.871 115.211 369.609 115.484 369.406 115.836C369.211 116.188 369.062 116.602 368.961 117.078C368.867 117.547 368.82 118.062 368.82 118.625V119.094C368.82 119.602 368.891 120.07 369.031 120.5C369.18 120.93 369.387 121.301 369.652 121.613C369.926 121.926 370.254 122.168 370.637 122.34C371.027 122.512 371.469 122.598 371.961 122.598C372.57 122.598 373.137 122.48 373.66 122.246C374.191 122.004 374.648 121.641 375.031 121.156L376.672 122.938C376.406 123.32 376.043 123.688 375.582 124.039C375.129 124.391 374.582 124.68 373.941 124.906C373.301 125.125 372.57 125.234 371.75 125.234ZM382.438 107V125H379.051V107H382.438Z" fill="white"/>
<g filter="url(#filter0_bd_15_148)">
<rect x="100" y="849.707" width="223" height="53.6874" rx="17" fill="#EDDA2F"/>
<path d="M177.586 870.848L174.188 880.707H172.133L176.414 869.332H177.727L177.586 870.848ZM180.43 880.707L177.023 870.848L176.875 869.332H178.195L182.492 880.707H180.43ZM180.266 876.488V878.043H174.078V876.488H180.266ZM188.734 878.957V868.707H190.625V880.707H188.914L188.734 878.957ZM183.234 876.574V876.41C183.234 875.77 183.31 875.186 183.461 874.66C183.612 874.129 183.831 873.673 184.117 873.293C184.404 872.908 184.753 872.613 185.164 872.41C185.576 872.202 186.039 872.098 186.555 872.098C187.065 872.098 187.513 872.197 187.898 872.395C188.284 872.593 188.612 872.876 188.883 873.246C189.154 873.611 189.37 874.048 189.531 874.559C189.693 875.064 189.807 875.626 189.875 876.246V876.77C189.807 877.374 189.693 877.926 189.531 878.426C189.37 878.926 189.154 879.358 188.883 879.723C188.612 880.087 188.281 880.369 187.891 880.566C187.505 880.764 187.055 880.863 186.539 880.863C186.029 880.863 185.568 880.757 185.156 880.543C184.75 880.329 184.404 880.03 184.117 879.645C183.831 879.259 183.612 878.806 183.461 878.285C183.31 877.759 183.234 877.189 183.234 876.574ZM185.117 876.41V876.574C185.117 876.96 185.151 877.319 185.219 877.652C185.292 877.986 185.404 878.28 185.555 878.535C185.706 878.785 185.901 878.983 186.141 879.129C186.385 879.27 186.677 879.34 187.016 879.34C187.443 879.34 187.794 879.246 188.07 879.059C188.346 878.871 188.562 878.619 188.719 878.301C188.88 877.978 188.99 877.619 189.047 877.223V875.809C189.016 875.501 188.951 875.215 188.852 874.949C188.758 874.684 188.63 874.452 188.469 874.254C188.307 874.051 188.107 873.895 187.867 873.785C187.633 873.671 187.354 873.613 187.031 873.613C186.688 873.613 186.396 873.686 186.156 873.832C185.917 873.978 185.719 874.178 185.562 874.434C185.411 874.689 185.299 874.986 185.227 875.324C185.154 875.663 185.117 876.025 185.117 876.41ZM197.75 878.957V868.707H199.641V880.707H197.93L197.75 878.957ZM192.25 876.574V876.41C192.25 875.77 192.326 875.186 192.477 874.66C192.628 874.129 192.846 873.673 193.133 873.293C193.419 872.908 193.768 872.613 194.18 872.41C194.591 872.202 195.055 872.098 195.57 872.098C196.081 872.098 196.529 872.197 196.914 872.395C197.299 872.593 197.628 872.876 197.898 873.246C198.169 873.611 198.385 874.048 198.547 874.559C198.708 875.064 198.823 875.626 198.891 876.246V876.77C198.823 877.374 198.708 877.926 198.547 878.426C198.385 878.926 198.169 879.358 197.898 879.723C197.628 880.087 197.297 880.369 196.906 880.566C196.521 880.764 196.07 880.863 195.555 880.863C195.044 880.863 194.583 880.757 194.172 880.543C193.766 880.329 193.419 880.03 193.133 879.645C192.846 879.259 192.628 878.806 192.477 878.285C192.326 877.759 192.25 877.189 192.25 876.574ZM194.133 876.41V876.574C194.133 876.96 194.167 877.319 194.234 877.652C194.307 877.986 194.419 878.28 194.57 878.535C194.721 878.785 194.917 878.983 195.156 879.129C195.401 879.27 195.693 879.34 196.031 879.34C196.458 879.34 196.81 879.246 197.086 879.059C197.362 878.871 197.578 878.619 197.734 878.301C197.896 877.978 198.005 877.619 198.062 877.223V875.809C198.031 875.501 197.966 875.215 197.867 874.949C197.773 874.684 197.646 874.452 197.484 874.254C197.323 874.051 197.122 873.895 196.883 873.785C196.648 873.671 196.37 873.613 196.047 873.613C195.703 873.613 195.411 873.686 195.172 873.832C194.932 873.978 194.734 874.178 194.578 874.434C194.427 874.689 194.315 874.986 194.242 875.324C194.169 875.663 194.133 876.025 194.133 876.41ZM205.781 869.332H209.805C210.669 869.332 211.406 869.462 212.016 869.723C212.625 869.983 213.091 870.369 213.414 870.879C213.742 871.384 213.906 872.009 213.906 872.754C213.906 873.322 213.802 873.822 213.594 874.254C213.385 874.686 213.091 875.051 212.711 875.348C212.331 875.639 211.878 875.866 211.352 876.027L210.758 876.316H207.141L207.125 874.762H209.836C210.305 874.762 210.695 874.678 211.008 874.512C211.32 874.345 211.555 874.119 211.711 873.832C211.872 873.54 211.953 873.212 211.953 872.848C211.953 872.452 211.875 872.108 211.719 871.816C211.568 871.52 211.333 871.293 211.016 871.137C210.698 870.975 210.294 870.895 209.805 870.895H207.742V880.707H205.781V869.332ZM212.273 880.707L209.602 875.598L211.656 875.59L214.367 880.606V880.707H212.273ZM215.312 876.574V876.395C215.312 875.785 215.401 875.22 215.578 874.699C215.755 874.173 216.01 873.718 216.344 873.332C216.682 872.941 217.094 872.639 217.578 872.426C218.068 872.207 218.62 872.098 219.234 872.098C219.854 872.098 220.406 872.207 220.891 872.426C221.38 872.639 221.794 872.941 222.133 873.332C222.471 873.718 222.729 874.173 222.906 874.699C223.083 875.22 223.172 875.785 223.172 876.395V876.574C223.172 877.184 223.083 877.749 222.906 878.27C222.729 878.79 222.471 879.246 222.133 879.637C221.794 880.022 221.383 880.324 220.898 880.543C220.414 880.757 219.865 880.863 219.25 880.863C218.63 880.863 218.076 880.757 217.586 880.543C217.102 880.324 216.69 880.022 216.352 879.637C216.013 879.246 215.755 878.79 215.578 878.27C215.401 877.749 215.312 877.184 215.312 876.574ZM217.195 876.395V876.574C217.195 876.954 217.234 877.314 217.312 877.652C217.391 877.991 217.513 878.288 217.68 878.543C217.846 878.798 218.06 878.999 218.32 879.145C218.581 879.29 218.891 879.363 219.25 879.363C219.599 879.363 219.901 879.29 220.156 879.145C220.417 878.999 220.63 878.798 220.797 878.543C220.964 878.288 221.086 877.991 221.164 877.652C221.247 877.314 221.289 876.954 221.289 876.574V876.395C221.289 876.02 221.247 875.665 221.164 875.332C221.086 874.994 220.961 874.694 220.789 874.434C220.622 874.173 220.409 873.97 220.148 873.824C219.893 873.673 219.589 873.598 219.234 873.598C218.88 873.598 218.573 873.673 218.312 873.824C218.057 873.97 217.846 874.173 217.68 874.434C217.513 874.694 217.391 874.994 217.312 875.332C217.234 875.665 217.195 876.02 217.195 876.395ZM229.836 878.715V872.254H231.727V880.707H229.945L229.836 878.715ZM230.102 876.957L230.734 876.941C230.734 877.509 230.672 878.033 230.547 878.512C230.422 878.986 230.229 879.4 229.969 879.754C229.708 880.103 229.375 880.376 228.969 880.574C228.562 880.767 228.076 880.863 227.508 880.863C227.096 880.863 226.719 880.803 226.375 880.684C226.031 880.564 225.734 880.379 225.484 880.129C225.24 879.879 225.049 879.553 224.914 879.152C224.779 878.751 224.711 878.272 224.711 877.715V872.254H226.594V877.731C226.594 878.038 226.63 878.296 226.703 878.504C226.776 878.707 226.875 878.871 227 878.996C227.125 879.121 227.271 879.21 227.438 879.262C227.604 879.314 227.781 879.34 227.969 879.34C228.505 879.34 228.927 879.236 229.234 879.027C229.547 878.814 229.768 878.527 229.898 878.168C230.034 877.809 230.102 877.405 230.102 876.957ZM237.531 872.254V873.629H232.766V872.254H237.531ZM234.141 870.184H236.023V878.371C236.023 878.632 236.06 878.832 236.133 878.973C236.211 879.108 236.318 879.199 236.453 879.246C236.589 879.293 236.747 879.316 236.93 879.316C237.06 879.316 237.185 879.309 237.305 879.293C237.424 879.277 237.521 879.262 237.594 879.246L237.602 880.684C237.445 880.731 237.263 880.772 237.055 880.809C236.852 880.845 236.617 880.863 236.352 880.863C235.919 880.863 235.536 880.788 235.203 880.637C234.87 880.481 234.609 880.228 234.422 879.879C234.234 879.53 234.141 879.066 234.141 878.488V870.184ZM242.711 880.863C242.086 880.863 241.521 880.762 241.016 880.559C240.516 880.35 240.089 880.061 239.734 879.691C239.385 879.322 239.117 878.887 238.93 878.387C238.742 877.887 238.648 877.348 238.648 876.77V876.457C238.648 875.796 238.745 875.197 238.938 874.66C239.13 874.124 239.398 873.665 239.742 873.285C240.086 872.9 240.492 872.606 240.961 872.402C241.43 872.199 241.938 872.098 242.484 872.098C243.089 872.098 243.617 872.199 244.07 872.402C244.523 872.606 244.898 872.892 245.195 873.262C245.497 873.626 245.721 874.061 245.867 874.566C246.018 875.072 246.094 875.629 246.094 876.238V877.043H239.562V875.691H244.234V875.543C244.224 875.204 244.156 874.887 244.031 874.59C243.911 874.293 243.727 874.053 243.477 873.871C243.227 873.689 242.893 873.598 242.477 873.598C242.164 873.598 241.885 873.665 241.641 873.801C241.401 873.931 241.201 874.121 241.039 874.371C240.878 874.621 240.753 874.923 240.664 875.277C240.581 875.626 240.539 876.02 240.539 876.457V876.77C240.539 877.139 240.589 877.483 240.688 877.801C240.792 878.113 240.943 878.387 241.141 878.621C241.339 878.856 241.578 879.04 241.859 879.176C242.141 879.306 242.461 879.371 242.82 879.371C243.273 879.371 243.677 879.28 244.031 879.098C244.385 878.915 244.693 878.658 244.953 878.324L245.945 879.285C245.763 879.551 245.526 879.806 245.234 880.051C244.943 880.29 244.586 880.486 244.164 880.637C243.747 880.788 243.263 880.863 242.711 880.863Z" fill="black"/>
</g>
<rect x="20" y="215.782" width="384" height="50.5901" rx="12" fill="#525252"/>
<path d="M49.4414 226.781H51.6289L55.7402 237.748L59.8418 226.781H62.0293L56.5996 241H54.8613L49.4414 226.781ZM48.4453 226.781H50.5254L50.8867 236.273V241H48.4453V226.781ZM60.9453 226.781H63.0352V241H60.584V236.273L60.9453 226.781ZM68.7773 239.848L71.6484 230.434H74.168L69.9297 242.611C69.832 242.872 69.7051 243.155 69.5488 243.461C69.3926 243.767 69.1875 244.057 68.9336 244.33C68.6862 244.61 68.377 244.835 68.0059 245.004C67.6348 245.18 67.1855 245.268 66.6582 245.268C66.4499 245.268 66.248 245.248 66.0527 245.209C65.8639 245.176 65.6849 245.141 65.5156 245.102L65.5059 243.305C65.571 243.311 65.6491 243.318 65.7402 243.324C65.8379 243.331 65.916 243.334 65.9746 243.334C66.3652 243.334 66.6908 243.285 66.9512 243.188C67.2116 243.096 67.4232 242.947 67.5859 242.738C67.7552 242.53 67.8984 242.25 68.0156 241.898L68.7773 239.848ZM67.1562 230.434L69.666 238.344L70.0859 240.824L68.4551 241.244L64.6172 230.434H67.1562ZM82.8301 232.689V241H80.4766V230.434H82.6934L82.8301 232.689ZM82.4102 235.326L81.6484 235.316C81.6549 234.568 81.7591 233.881 81.9609 233.256C82.1693 232.631 82.4557 232.094 82.8203 231.645C83.1914 231.195 83.6341 230.85 84.1484 230.609C84.6628 230.362 85.2357 230.238 85.8672 230.238C86.375 230.238 86.834 230.31 87.2441 230.453C87.6608 230.59 88.0156 230.814 88.3086 231.127C88.6081 231.439 88.8359 231.846 88.9922 232.348C89.1484 232.842 89.2266 233.451 89.2266 234.174V241H86.8633V234.164C86.8633 233.656 86.7884 233.256 86.6387 232.963C86.4954 232.663 86.2839 232.452 86.0039 232.328C85.7305 232.198 85.3887 232.133 84.9785 232.133C84.5749 232.133 84.2135 232.217 83.8945 232.387C83.5755 232.556 83.3053 232.787 83.084 233.08C82.8691 233.373 82.7031 233.712 82.5859 234.096C82.4688 234.48 82.4102 234.89 82.4102 235.326ZM96.2871 241.195C95.5059 241.195 94.7995 241.068 94.168 240.814C93.543 240.554 93.0091 240.193 92.5664 239.73C92.1302 239.268 91.7949 238.725 91.5605 238.1C91.3262 237.475 91.209 236.801 91.209 236.078V235.688C91.209 234.861 91.3294 234.112 91.5703 233.441C91.8112 232.771 92.1465 232.198 92.5762 231.723C93.0059 231.241 93.5137 230.873 94.0996 230.619C94.6855 230.365 95.3203 230.238 96.0039 230.238C96.7591 230.238 97.4199 230.365 97.9863 230.619C98.5527 230.873 99.0215 231.231 99.3926 231.693C99.7702 232.149 100.05 232.693 100.232 233.324C100.421 233.956 100.516 234.652 100.516 235.414V236.42H92.3516V234.73H98.1914V234.545C98.1784 234.122 98.0938 233.725 97.9375 233.354C97.7878 232.982 97.5566 232.683 97.2441 232.455C96.9316 232.227 96.515 232.113 95.9941 232.113C95.6035 232.113 95.2552 232.198 94.9492 232.367C94.6497 232.53 94.3991 232.768 94.1973 233.08C93.9954 233.393 93.8392 233.77 93.7285 234.213C93.6243 234.649 93.5723 235.141 93.5723 235.688V236.078C93.5723 236.54 93.6341 236.97 93.7578 237.367C93.888 237.758 94.0768 238.1 94.3242 238.393C94.5716 238.686 94.8711 238.917 95.2227 239.086C95.5742 239.249 95.9746 239.33 96.4238 239.33C96.9902 239.33 97.4948 239.216 97.9375 238.988C98.3802 238.76 98.7643 238.438 99.0898 238.021L100.33 239.223C100.102 239.555 99.806 239.874 99.4414 240.18C99.0768 240.479 98.6309 240.723 98.1035 240.912C97.5827 241.101 96.9772 241.195 96.2871 241.195ZM105.223 238.656L107.664 230.434H109.168L108.758 232.895L106.297 241H104.949L105.223 238.656ZM103.787 230.434L105.691 238.695L105.848 241H104.344L101.482 230.434H103.787ZM111.453 238.598L113.299 230.434H115.594L112.742 241H111.238L111.453 238.598ZM109.422 230.434L111.834 238.559L112.137 241H110.789L108.299 232.885L107.889 230.434H109.422ZM124.539 232.445V241H122.186V230.434H124.432L124.539 232.445ZM127.771 230.365L127.752 232.553C127.609 232.527 127.452 232.507 127.283 232.494C127.12 232.481 126.958 232.475 126.795 232.475C126.391 232.475 126.036 232.533 125.73 232.65C125.424 232.761 125.167 232.924 124.959 233.139C124.757 233.347 124.601 233.601 124.49 233.9C124.38 234.2 124.314 234.535 124.295 234.906L123.758 234.945C123.758 234.281 123.823 233.666 123.953 233.1C124.083 232.533 124.279 232.035 124.539 231.605C124.806 231.176 125.138 230.84 125.535 230.6C125.939 230.359 126.404 230.238 126.932 230.238C127.075 230.238 127.228 230.251 127.391 230.277C127.56 230.303 127.687 230.333 127.771 230.365ZM128.543 235.834V235.609C128.543 234.848 128.654 234.141 128.875 233.49C129.096 232.833 129.415 232.263 129.832 231.781C130.255 231.293 130.77 230.915 131.375 230.648C131.987 230.375 132.677 230.238 133.445 230.238C134.22 230.238 134.91 230.375 135.516 230.648C136.128 230.915 136.645 231.293 137.068 231.781C137.492 232.263 137.814 232.833 138.035 233.49C138.257 234.141 138.367 234.848 138.367 235.609V235.834C138.367 236.596 138.257 237.302 138.035 237.953C137.814 238.604 137.492 239.174 137.068 239.662C136.645 240.144 136.131 240.521 135.525 240.795C134.92 241.062 134.233 241.195 133.465 241.195C132.69 241.195 131.997 241.062 131.385 240.795C130.779 240.521 130.265 240.144 129.842 239.662C129.419 239.174 129.096 238.604 128.875 237.953C128.654 237.302 128.543 236.596 128.543 235.834ZM130.896 235.609V235.834C130.896 236.309 130.945 236.758 131.043 237.182C131.141 237.605 131.294 237.976 131.502 238.295C131.71 238.614 131.977 238.865 132.303 239.047C132.628 239.229 133.016 239.32 133.465 239.32C133.901 239.32 134.279 239.229 134.598 239.047C134.923 238.865 135.19 238.614 135.398 238.295C135.607 237.976 135.76 237.605 135.857 237.182C135.962 236.758 136.014 236.309 136.014 235.834V235.609C136.014 235.141 135.962 234.698 135.857 234.281C135.76 233.858 135.604 233.484 135.389 233.158C135.18 232.833 134.913 232.579 134.588 232.396C134.269 232.208 133.888 232.113 133.445 232.113C133.003 232.113 132.618 232.208 132.293 232.396C131.974 232.579 131.71 232.833 131.502 233.158C131.294 233.484 131.141 233.858 131.043 234.281C130.945 234.698 130.896 235.141 130.896 235.609ZM146.697 238.51V230.434H149.061V241H146.834L146.697 238.51ZM147.029 236.312L147.82 236.293C147.82 237.003 147.742 237.657 147.586 238.256C147.43 238.848 147.189 239.366 146.863 239.809C146.538 240.245 146.121 240.587 145.613 240.834C145.105 241.075 144.497 241.195 143.787 241.195C143.273 241.195 142.801 241.12 142.371 240.971C141.941 240.821 141.57 240.59 141.258 240.277C140.952 239.965 140.714 239.558 140.545 239.057C140.376 238.555 140.291 237.956 140.291 237.26V230.434H142.645V237.279C142.645 237.663 142.69 237.986 142.781 238.246C142.872 238.5 142.996 238.705 143.152 238.861C143.309 239.018 143.491 239.128 143.699 239.193C143.908 239.258 144.129 239.291 144.363 239.291C145.034 239.291 145.561 239.161 145.945 238.9C146.336 238.633 146.613 238.275 146.775 237.826C146.945 237.377 147.029 236.872 147.029 236.312ZM156.316 230.434V232.152H150.359V230.434H156.316ZM152.078 227.846H154.432V238.08C154.432 238.406 154.477 238.656 154.568 238.832C154.666 239.001 154.799 239.115 154.969 239.174C155.138 239.232 155.337 239.262 155.564 239.262C155.727 239.262 155.883 239.252 156.033 239.232C156.183 239.213 156.303 239.193 156.395 239.174L156.404 240.971C156.209 241.029 155.981 241.081 155.721 241.127C155.467 241.173 155.174 241.195 154.842 241.195C154.301 241.195 153.823 241.101 153.406 240.912C152.99 240.717 152.664 240.401 152.43 239.965C152.195 239.529 152.078 238.949 152.078 238.227V227.846ZM162.791 241.195C162.01 241.195 161.303 241.068 160.672 240.814C160.047 240.554 159.513 240.193 159.07 239.73C158.634 239.268 158.299 238.725 158.064 238.1C157.83 237.475 157.713 236.801 157.713 236.078V235.688C157.713 234.861 157.833 234.112 158.074 233.441C158.315 232.771 158.65 232.198 159.08 231.723C159.51 231.241 160.018 230.873 160.604 230.619C161.189 230.365 161.824 230.238 162.508 230.238C163.263 230.238 163.924 230.365 164.49 230.619C165.057 230.873 165.525 231.231 165.896 231.693C166.274 232.149 166.554 232.693 166.736 233.324C166.925 233.956 167.02 234.652 167.02 235.414V236.42H158.855V234.73H164.695V234.545C164.682 234.122 164.598 233.725 164.441 233.354C164.292 232.982 164.061 232.683 163.748 232.455C163.436 232.227 163.019 232.113 162.498 232.113C162.107 232.113 161.759 232.198 161.453 232.367C161.154 232.53 160.903 232.768 160.701 233.08C160.499 233.393 160.343 233.77 160.232 234.213C160.128 234.649 160.076 235.141 160.076 235.688V236.078C160.076 236.54 160.138 236.97 160.262 237.367C160.392 237.758 160.581 238.1 160.828 238.393C161.076 238.686 161.375 238.917 161.727 239.086C162.078 239.249 162.479 239.33 162.928 239.33C163.494 239.33 163.999 239.216 164.441 238.988C164.884 238.76 165.268 238.438 165.594 238.021L166.834 239.223C166.606 239.555 166.31 239.874 165.945 240.18C165.581 240.479 165.135 240.723 164.607 240.912C164.087 241.101 163.481 241.195 162.791 241.195Z" fill="white"/>
<defs>
<filter id="filter0_bd_15_148" x="53" y="803.707" width="317" height="147.687" filterUnits="userSpaceOnUse" color-interpolation-filters="sRGB">
<feFlood flood-opacity="0" result="BackgroundImageFix"/>
<feGaussianBlur in="BackgroundImageFix" stdDeviation="6.5"/>
<feComposite in2="SourceAlpha" operator="in" result="effect1_backgroundBlur_15_148"/>
<feColorMatrix in="SourceAlpha" type="matrix" values="0 0 0 0 0 0 0 0 0 0 0 0 0 0 0 0 0 0 127 0" result="hardAlpha"/>
<feOffset dy="1"/>
<feGaussianBlur stdDeviation="23.5"/>
<feColorMatrix type="matrix" values="0 0 0 0 0 0 0 0 0 0 0 0 0 0 0 0 0 0 0.09 0"/>
<feBlend mode="normal" in2="effect1_backgroundBlur_15_148" result="effect2_dropShadow_15_148"/>
<feBlend mode="normal" in="SourceGraphic" in2="effect2_dropShadow_15_148" result="shape"/>
</filter>
</defs>
</svg>
